# xmcd CD database file
#
# Track frame offsets:
#	150
#	11775
#	26483
#	41280
#	52203
#	64400
#	74635
#	85783
#	98878
#	112795
#	131380
#	144945
#	158053
#	173622
#
# Disc length: 2507 seconds
#
# Revision: 0
# Processed by: cddbd v1.5.2PL0 Copyright (c) Steve Scherf et al.
# Submitted via: CDex 1.70beta2
#
DISCID=b509c90e
DTITLE=Smiling Jack Smith - First night with the blues
DYEAR=1996
DGENRE=Blues
TTITLE0=First night with the blues
TTITLE1=Maria's tune
TTITLE2=Dead end street calles Paradise
TTITLE3=Black shoes
TTITLE4=You have to feel alone to play the blues
TTITLE5=Cuqui
TTITLE6=Every single day
TTITLE7=You can run but you can't hide from love
TTITLE8=I'm back
TTITLE9=Can't live without love
TTITLE10=Comes the revolution
TTITLE11=Crazy 'bout this woman
TTITLE12=Quemado por la luna
TTITLE13=Come on everybody
EXTD=YEAR: 1996
EXTT0=
EXTT1=
EXTT2=
EXTT3=
EXTT4=
EXTT5=
EXTT6=
EXTT7=
EXTT8=
EXTT9=
EXTT10=
EXTT11=
EXTT12=
EXTT13=
PLAYORDER=
